<?xml version="1.0" encoding="UTF-8"?>
<svg version="1.1" xmlns="http://www.w3.org/2000/svg" width="1024" height="1024">
<path d="M0 0 C0.7542627 0.03464355 1.50852539 0.06928711 2.28564453 0.10498047 C6.11102726 0.34281456 8.77092022 0.9260223 12.125 2.6875 C13.49159963 3.20379682 14.86729753 3.69649144 16.25 4.16796875 C25.04246087 7.23977207 33.09133411 10.37288853 40.97265625 15.40234375 C42.99339152 16.85838712 42.99339152 16.85838712 45.125 16.6875 C46.24853591 17.77592542 47.36345867 18.87404116 48.4453125 20.00390625 C50.55235675 22.1158506 52.77051973 24.08036328 55 26.0625 C56.70952751 27.60284236 58.41793912 29.14442449 60.125 30.6875 C61.05892578 31.51894531 61.05892578 31.51894531 62.01171875 32.3671875 C70.0357496 39.88620942 75.68724529 49.52623158 80.875 59.125 C81.22739746 59.76743652 81.57979492 60.40987305 81.94287109 61.07177734 C84.29843309 65.56534592 86.08188252 70.19451407 87.75878906 74.97680664 C87.98760773 75.62365669 88.21642639 76.27050674 88.45217896 76.93695831 C89.0117702 78.5197721 89.56866079 80.10354024 90.125 81.6875 C127.82758112 78.97991814 165.51799291 76.13342199 203.20100117 73.16595984 C207.41402457 72.83433885 211.62709971 72.50337814 215.8401773 72.17244637 C234.2418184 70.72700751 252.64338002 69.28061141 271.04394531 67.8215332 C280.78676604 67.04900634 290.52996946 66.281512 300.27362955 65.51964265 C305.36855403 65.12105649 310.46325626 64.72001886 315.55748367 64.31261253 C320.30370597 63.9330456 325.05040555 63.56012227 329.79753304 63.19205475 C331.51888539 63.0574414 333.24005742 62.92049502 334.96100807 62.78083992 C343.61035431 62.08028159 352.21764952 61.57048716 360.89804077 61.53999329 C361.63181619 61.53596314 362.36559161 61.53193299 363.12160265 61.52778071 C376.53151427 61.59361741 389.634695 66.80225052 399.56640625 75.94140625 C402.22667704 78.92170961 404.44185002 82.18892108 406.64453125 85.515625 C408.08074847 87.76724936 408.08074847 87.76724936 410.125 89.6875 C413.62614352 97.83461483 414.94114757 105.99089948 415.71240234 114.75976562 C415.83075125 115.97453835 415.94910015 117.18931107 416.07103539 118.44089508 C416.31506028 120.96019498 416.55306699 123.48008499 416.78508759 126.0005188 C417.10370396 129.45650493 417.43874649 132.91035382 417.78155518 136.36401367 C418.44667122 143.08485365 419.08743658 149.8078965 419.7265625 156.53125 C419.96625389 159.03936786 420.20611151 161.54746983 420.44612122 164.05555725 C420.95282616 169.35289032 421.45870228 174.65030144 421.96383667 179.94778442 C423.24068976 193.33698572 424.52420405 206.72555007 425.80740142 220.11414456 C426.01193486 222.24834873 426.21641883 224.38255763 426.42089272 226.5167675 C428.77603073 251.09700214 431.15351471 275.67498168 433.5625 300.25 C433.64921463 301.1346418 433.73592926 302.0192836 433.82527161 302.93073273 C434.93717237 314.2715623 436.05192993 325.61211031 437.16761589 336.95256805 C437.97837095 345.19436418 438.78791541 353.43627888 439.59716797 361.67822266 C441.02070209 376.17586822 442.44576799 390.67336281 443.87153554 405.17078888 C444.35812421 410.11883409 444.84431915 415.06691789 445.3303833 420.01501465 C448.18319183 449.05368494 451.05251697 478.09042239 454.00228119 507.11942291 C454.39777457 511.0136038 454.79235021 514.90787651 455.18658447 518.80218506 C455.44225837 521.32727075 455.69793461 523.8523562 455.95361328 526.37744141 C456.07787689 527.60493858 456.2021405 528.83243576 456.33016968 530.09712982 C457.0553034 537.25278353 457.78737489 544.40768461 458.52478313 551.56208324 C458.97564951 555.9507744 459.42041242 560.34006919 459.86361885 564.72953987 C460.06751257 566.73556888 460.27400623 568.7413358 460.48344231 570.74679375 C464.78289685 611.95246658 464.78289685 611.95246658 452.08203125 628.3203125 C436.56118356 646.21870829 418.57847983 648.55219763 396.125 650.6875 C396.01285156 651.43378662 395.90070313 652.18007324 395.78515625 652.94897461 C392.84788761 672.11290411 388.5784434 689.29504396 376.125 704.6875 C375.28195312 705.75871094 375.28195312 705.75871094 374.421875 706.8515625 C371.81603532 710.04963847 369.88252409 711.92208192 366.125 713.6875 C363.62197812 715.18524317 361.14117896 716.71613743 358.66015625 718.25 C353.47851068 721.18812877 348.63967654 722.23067001 342.75 722.875 C341.95343994 722.9682959 341.15687988 723.0615918 340.33618164 723.15771484 C335.23344373 723.68360251 330.66905001 723.50760381 325.5625 722.8125 C316.9245173 721.96727804 310.64546988 725.51208154 303.35571289 729.71020508 C288.94765016 736.02250398 272.05859495 732.87459699 257.375 729.25 C255.72348582 728.85961706 254.07152632 728.47111454 252.41918945 728.08422852 C247.50054889 726.92568799 242.58938533 725.73754663 237.67852783 724.54650879 C233.75707336 723.59855959 229.83370482 722.65886992 225.90966797 721.72167969 C225.18905119 721.54957128 224.46843441 721.37746286 223.72598076 721.20013905 C222.23346448 720.8437497 220.74093795 720.48740327 219.24840164 720.13109779 C209.30364553 717.75695778 199.3596359 715.37993958 189.42089844 712.98071289 C171.52821886 708.66459895 153.61101172 704.47519253 135.66113281 700.40332031 C130.15085567 699.15331063 124.64717067 697.87915361 119.15016174 696.572052 C96.1147094 691.22114392 71.7934722 687.43740464 48.125 688.6875 C47.795 687.6975 47.465 686.7075 47.125 685.6875 C46.43575439 685.59251221 45.74650879 685.49752441 45.03637695 685.3996582 C14.8337881 681.1491477 14.8337881 681.1491477 3.875 672.6875 C-6.35387957 665.42430901 -20.74103912 664.40269875 -32.95703125 663.12109375 C-36.875 662.6875 -36.875 662.6875 -39.875 661.6875 C-41.07125 661.36394531 -42.2675 661.04039062 -43.5 660.70703125 C-60.81812082 655.98553531 -74.56518459 648.70688313 -83.875 632.6875 C-89.23908733 622.18697892 -91.51358651 612.40463266 -90.2265625 600.65234375 C-90.13955582 599.84558197 -90.05254913 599.03882019 -89.96290588 598.20761108 C-88.47163 585.32903913 -86.06302701 572.57472175 -83.8125 559.8125 C-83.34697493 557.14736697 -82.88353259 554.48187285 -82.41992188 551.81640625 C-81.5748731 546.96962403 -80.72825454 542.12313402 -79.87475586 537.27783203 C-79.620662 535.8349028 -79.620662 535.8349028 -79.36143494 534.36282349 C-78.89506718 531.79786666 -78.39470962 529.24213027 -77.875 526.6875 C-78.535 526.3575 -79.195 526.0275 -79.875 525.6875 C-79.215 525.3575 -78.555 525.0275 -77.875 524.6875 C-77.19142016 521.78883633 -76.63443211 518.94442829 -76.140625 516.01171875 C-75.98192932 515.11093094 -75.82323364 514.21014313 -75.659729 513.28205872 C-75.13937423 510.31449453 -74.63192066 507.3448861 -74.125 504.375 C-73.77076824 502.33453361 -73.41594653 500.29416955 -73.06054688 498.25390625 C-72.15974909 493.06618848 -71.27085341 487.87651367 -70.38647461 482.68597412 C-69.89866128 479.82621215 -69.40790037 476.96697431 -68.91601562 474.10791016 C-68.19452774 469.91082556 -67.47851007 465.71285464 -66.76843262 461.51382446 C-66.50742435 459.97051086 -66.24547077 458.42735681 -65.98254395 456.8843689 C-65.61940928 454.74653458 -65.26190032 452.60784048 -64.90625 450.46875 C-64.70580078 449.27314453 -64.50535156 448.07753906 -64.29882812 446.84570312 C-63.80693811 443.80760042 -63.80693811 443.80760042 -63.93554688 441.20117188 C-63.85410892 437.82018316 -62.83271073 434.92654492 -61.875 431.6875 C-61.34745088 428.98974799 -60.8534921 426.30368748 -60.40234375 423.59375 C-60.27436905 422.84339478 -60.14639435 422.09303955 -60.01454163 421.31994629 C-59.610201 418.94306802 -59.21137712 416.5653005 -58.8125 414.1875 C-58.54135405 412.59239035 -58.26987255 410.9973377 -57.99804688 409.40234375 C-57.73667859 407.86203014 -57.47560114 406.32166715 -57.21484375 404.78125 C-57.09503647 404.0737561 -56.97522919 403.36626221 -56.85179138 402.6373291 C-56.32824551 399.51429524 -55.83347088 396.39178907 -55.39306641 393.25585938 C-54.7729543 388.98462538 -54.0152412 384.74647504 -53.24609375 380.5 C-52.93004518 378.73182324 -52.61429914 376.96359239 -52.29882812 375.1953125 C-51.80571576 372.43663503 -51.31083674 369.6783282 -50.81079102 366.92089844 C-50.32535401 364.2398917 -49.84760989 361.55760474 -49.37109375 358.875 C-49.22111435 358.05813721 -49.07113495 357.24127441 -48.91661072 356.3996582 C-48.09795797 351.74961665 -47.72409931 347.40915487 -47.875 342.6875 C-47.545 342.6875 -47.215 342.6875 -46.875 342.6875 C-46.875 340.7075 -46.875 338.7275 -46.875 336.6875 C-46.215 336.6875 -45.555 336.6875 -44.875 336.6875 C-44.81131226 335.76179199 -44.81131226 335.76179199 -44.74633789 334.81738281 C-44.04470889 325.92413385 -42.51237066 317.20414548 -40.95629883 308.42871094 C-40.61044741 306.46896603 -40.27194458 304.5079288 -39.93359375 302.546875 C-39.73048584 301.39670898 -39.52737793 300.24654297 -39.31811523 299.06152344 C-38.85891489 295.56502277 -38.79912049 292.20987704 -38.875 288.6875 C-38.215 288.6875 -37.555 288.6875 -36.875 288.6875 C-36.83145386 288.06669052 -36.78790771 287.44588104 -36.74304199 286.80625916 C-36.09799139 278.70209723 -34.80437257 270.7570716 -33.40625 262.75390625 C-33.16311595 261.34437253 -32.9203245 259.93477967 -32.67785645 258.52513123 C-32.17281175 255.59416996 -31.66495934 252.66371527 -31.15478516 249.73364258 C-30.50179166 245.98305018 -29.85397252 242.2315878 -29.20798492 238.47978306 C-28.70830752 235.57906813 -28.2069332 232.67864878 -27.7049408 229.77833366 C-27.46544008 228.39452039 -27.22622993 227.01065679 -26.98731995 225.62674141 C-26.65392685 223.69823536 -26.31822545 221.7701288 -25.98242188 219.84204102 C-25.79224487 218.74714859 -25.60206787 217.65225616 -25.40612793 216.52418518 C-24.9735657 214.21392656 -24.48032365 211.95731361 -23.875 209.6875 C-24.69097656 209.5946875 -25.50695312 209.501875 -26.34765625 209.40625 C-30.6449607 208.53060878 -34.32897434 206.98667725 -38.3125 205.1875 C-39.10237305 204.83075195 -39.89224609 204.47400391 -40.70605469 204.10644531 C-69.27089306 190.92002535 -90.88676037 169.43244447 -101.875 139.6875 C-111.30250924 113.2963848 -109.97416689 82.74425913 -98.07299805 57.36401367 C-85.67038152 32.18421501 -65.78903586 14.88736651 -39.875 4.6875 C-39.04355469 4.3575 -38.21210938 4.0275 -37.35546875 3.6875 C-25.50380749 -0.88605388 -12.55642865 -0.63750008 0 0 Z M-23.5625 28.0625 C-24.29533203 28.18882812 -25.02816406 28.31515625 -25.78320312 28.4453125 C-41.79451528 31.33283498 -56.51480511 41.8571886 -66.16796875 54.75 C-78.9022453 73.09012655 -83.4571208 94.69481508 -80.375 116.78515625 C-76.24688443 139.4663367 -64.85464416 158.2499294 -46.12109375 171.6484375 C-37.58522746 177.01031741 -28.79412135 180.77611319 -18.875 182.6875 C-18.7298999 181.76114746 -18.5847998 180.83479492 -18.43530273 179.88037109 C-17.87388371 176.36926045 -17.29165001 172.86283331 -16.69604492 169.35742188 C-16.44476043 167.85387369 -16.2012989 166.34899231 -15.96655273 164.84277344 C-14.07579327 152.76448907 -10.72407176 142.96110763 -3.875 132.6875 C-3.25007492 130.34403096 -2.6729983 127.98764181 -2.125 125.625 C-0.42508208 118.85378223 1.96204756 113.36242064 6.125 107.6875 C6.62644531 106.99269531 7.12789063 106.29789062 7.64453125 105.58203125 C18.66018528 91.72535695 33.64727004 87.91806136 50.375 85.9375 C54.28965601 85.49978356 58.2057751 85.08215049 62.125 84.6875 C61.28958263 79.94428782 59.65353283 76.20693403 57.5 71.9375 C56.96584473 70.87341919 56.96584473 70.87341919 56.42089844 69.7878418 C53.55686869 64.2306838 50.21961338 59.41580354 46.125 54.6875 C45.49851562 53.8728125 44.87203125 53.058125 44.2265625 52.21875 C32.53673309 38.13880678 14.11594544 29.60103198 -3.63671875 26.984375 C-10.54783671 26.35078638 -16.77690321 26.80119157 -23.5625 28.0625 Z M54.125 686.6875 C54.125 687.0175 54.125 687.3475 54.125 687.6875 C56.435 687.6875 58.745 687.6875 61.125 687.6875 C61.125 687.3575 61.125 687.0275 61.125 686.6875 C58.815 686.6875 56.505 686.6875 54.125 686.6875 Z " fill="#008AFE" transform="translate(303.875,143.3125)"/>
<path d="M0 0 C0.7542627 0.03464355 1.50852539 0.06928711 2.28564453 0.10498047 C6.11102726 0.34281456 8.77092022 0.9260223 12.125 2.6875 C13.49159963 3.20379682 14.86729753 3.69649144 16.25 4.16796875 C25.04246087 7.23977207 33.09133411 10.37288853 40.97265625 15.40234375 C42.99339152 16.85838712 42.99339152 16.85838712 45.125 16.6875 C46.24853591 17.77592542 47.36345867 18.87404116 48.4453125 20.00390625 C50.55235675 22.1158506 52.77051973 24.08036328 55 26.0625 C56.70952751 27.60284236 58.41793912 29.14442449 60.125 30.6875 C61.05892578 31.51894531 61.05892578 31.51894531 62.01171875 32.3671875 C74.41405685 43.98895886 84.59252716 62.37059777 89.125 78.6875 C89.39352783 79.6480127 89.39352783 79.6480127 89.66748047 80.62792969 C95.68105784 102.92637608 95.70678403 127.45604257 84.6875 148.20703125 C82.2301962 152.10800103 79.98109811 155.11676792 76.125 157.6875 C72.19140539 158.48031752 68.59767366 158.51674562 65.05078125 156.51953125 C61.6507772 153.74678161 58.98793823 151.11005843 58.125 146.6875 C58.24454851 140.82962324 60.5071011 136.05663426 62.87109375 130.75 C69.03394297 115.69805673 67.61330152 96.9751526 61.68359375 82.0625 C51.92830528 59.40223351 36.77366625 42.6720326 14.24609375 32.37109375 C-0.48523053 26.56004735 -18.64782538 25.99985872 -33.875 30.6875 C-34.205 31.3475 -34.535 32.0075 -34.875 32.6875 C-36.86679457 33.3782958 -38.86844288 34.04083704 -40.875 34.6875 C-58.37011947 43.10045363 -69.63765572 57.88480167 -76.04638672 75.87231445 C-83.59139851 98.43380639 -80.72583277 122.56877952 -70.3828125 143.7421875 C-59.30644586 164.14602079 -40.76484965 176.00924078 -18.875 182.6875 C-18.82674072 182.03628174 -18.77848145 181.38506348 -18.72875977 180.71411133 C-17.3394966 163.67942195 -15.05886563 146.81350717 -4.875 132.6875 C-4.545 132.6875 -4.215 132.6875 -3.875 132.6875 C-3.79983154 133.73538696 -3.79983154 133.73538696 -3.72314453 134.80444336 C-2.508036 151.77143699 -2.508036 151.77143699 -0.68481445 168.67993164 C0.16840515 175.62531351 0.72745025 182.59019418 1.3125 189.5625 C2.79152552 207.0671808 4.65135781 224.53144743 6.5 242 C8.6813355 262.61505346 10.78693672 283.23171225 12.6875 303.875 C14.14435175 319.6771574 15.71891304 335.45881594 17.45336914 351.23291016 C20.62530571 380.08869209 23.41993344 408.97802501 26.1875 437.875 C26.29711185 439.01912228 26.40672371 440.16324455 26.51965714 441.3420372 C29.13954446 468.69591715 31.73177332 496.05231558 34.28979492 523.41204834 C35.65183928 537.96043618 37.11233293 552.49574145 38.67285156 567.02416992 C39.54431143 575.14075461 40.38946193 583.25902816 41.19140625 591.3828125 C41.28033646 592.28229111 41.36926666 593.18176971 41.46089172 594.10850525 C41.887787 598.43307641 42.31143665 602.75793575 42.73071289 607.08325195 C45.22671446 638.49249265 45.22671446 638.49249265 62.640625 663.78515625 C73.3214618 671.46010041 82.36755679 676.0861126 95.75 676.0625 C96.75796631 676.06088867 97.76593262 676.05927734 98.80444336 676.05761719 C125.8331191 675.66016531 152.95746974 672.00434649 179.81860352 669.17089844 C192.80634568 667.80150263 205.80474739 666.54701762 218.80440712 665.29677296 C223.70441351 664.82521573 228.60402238 664.34968545 233.50341797 663.87182617 C242.29354443 663.01456038 251.08408463 662.1616382 259.875 661.3125 C261.04114208 661.19980019 261.04114208 661.19980019 262.23084259 661.08482361 C279.82671448 659.38542917 297.42373896 657.71282061 315.0390625 656.2265625 C315.70407776 656.17044926 316.36909302 656.11433601 317.05426025 656.05652237 C323.86170892 655.48348164 330.67008527 654.92278232 337.47949219 654.37353516 C339.70253159 654.19243785 341.92551477 654.01064882 344.1484375 653.828125 C345.21384766 653.74070038 346.27925781 653.65327576 347.37695312 653.5632019 C356.5493467 652.78590848 365.69072668 651.77132649 374.82601929 650.63970947 C381.96016871 649.7921219 388.94262712 649.53022836 396.125 649.6875 C392.63603629 672.23040996 388.44075292 691.66981071 372.06640625 708.5078125 C369.90329631 710.44992809 369.90329631 710.44992809 370.125 712.6875 C369.56683594 712.79191406 369.00867188 712.89632812 368.43359375 713.00390625 C365.68001438 713.81926393 363.61524733 715.09503288 361.1875 716.625 C355.10887601 720.44880211 349.89292895 722.09356433 342.75 722.875 C341.95343994 722.9682959 341.15687988 723.0615918 340.33618164 723.15771484 C335.23344373 723.68360251 330.66905001 723.50760381 325.5625 722.8125 C316.9245173 721.96727804 310.64546988 725.51208154 303.35571289 729.71020508 C288.94765016 736.02250398 272.05859495 732.87459699 257.375 729.25 C255.72348582 728.85961706 254.07152632 728.47111454 252.41918945 728.08422852 C247.50054889 726.92568799 242.58938533 725.73754663 237.67852783 724.54650879 C233.75707336 723.59855959 229.83370482 722.65886992 225.90966797 721.72167969 C225.18905119 721.54957128 224.46843441 721.37746286 223.72598076 721.20013905 C222.23346448 720.8437497 220.74093795 720.48740327 219.24840164 720.13109779 C209.30364553 717.75695778 199.3596359 715.37993958 189.42089844 712.98071289 C171.52821886 708.66459895 153.61101172 704.47519253 135.66113281 700.40332031 C130.15085567 699.15331063 124.64717067 697.87915361 119.15016174 696.572052 C96.1147094 691.22114392 71.7934722 687.43740464 48.125 688.6875 C47.795 687.6975 47.465 686.7075 47.125 685.6875 C46.43575439 685.59251221 45.74650879 685.49752441 45.03637695 685.3996582 C14.8337881 681.1491477 14.8337881 681.1491477 3.875 672.6875 C-6.35387957 665.42430901 -20.74103912 664.40269875 -32.95703125 663.12109375 C-36.875 662.6875 -36.875 662.6875 -39.875 661.6875 C-41.07125 661.36394531 -42.2675 661.04039062 -43.5 660.70703125 C-60.81812082 655.98553531 -74.56518459 648.70688313 -83.875 632.6875 C-89.23908733 622.18697892 -91.51358651 612.40463266 -90.2265625 600.65234375 C-90.13955582 599.84558197 -90.05254913 599.03882019 -89.96290588 598.20761108 C-88.47163 585.32903913 -86.06302701 572.57472175 -83.8125 559.8125 C-83.34697493 557.14736697 -82.88353259 554.48187285 -82.41992188 551.81640625 C-81.5748731 546.96962403 -80.72825454 542.12313402 -79.87475586 537.27783203 C-79.620662 535.8349028 -79.620662 535.8349028 -79.36143494 534.36282349 C-78.89506718 531.79786666 -78.39470962 529.24213027 -77.875 526.6875 C-78.535 526.3575 -79.195 526.0275 -79.875 525.6875 C-79.215 525.3575 -78.555 525.0275 -77.875 524.6875 C-77.19142016 521.78883633 -76.63443211 518.94442829 -76.140625 516.01171875 C-75.98192932 515.11093094 -75.82323364 514.21014313 -75.659729 513.28205872 C-75.13937423 510.31449453 -74.63192066 507.3448861 -74.125 504.375 C-73.77076824 502.33453361 -73.41594653 500.29416955 -73.06054688 498.25390625 C-72.15974909 493.06618848 -71.27085341 487.87651367 -70.38647461 482.68597412 C-69.89866128 479.82621215 -69.40790037 476.96697431 -68.91601562 474.10791016 C-68.19452774 469.91082556 -67.47851007 465.71285464 -66.76843262 461.51382446 C-66.50742435 459.97051086 -66.24547077 458.42735681 -65.98254395 456.8843689 C-65.61940928 454.74653458 -65.26190032 452.60784048 -64.90625 450.46875 C-64.70580078 449.27314453 -64.50535156 448.07753906 -64.29882812 446.84570312 C-63.80693811 443.80760042 -63.80693811 443.80760042 -63.93554688 441.20117188 C-63.85410892 437.82018316 -62.83271073 434.92654492 -61.875 431.6875 C-61.34745088 428.98974799 -60.8534921 426.30368748 -60.40234375 423.59375 C-60.27436905 422.84339478 -60.14639435 422.09303955 -60.01454163 421.31994629 C-59.610201 418.94306802 -59.21137712 416.5653005 -58.8125 414.1875 C-58.54135405 412.59239035 -58.26987255 410.9973377 -57.99804688 409.40234375 C-57.73667859 407.86203014 -57.47560114 406.32166715 -57.21484375 404.78125 C-57.09503647 404.0737561 -56.97522919 403.36626221 -56.85179138 402.6373291 C-56.32824551 399.51429524 -55.83347088 396.39178907 -55.39306641 393.25585938 C-54.7729543 388.98462538 -54.0152412 384.74647504 -53.24609375 380.5 C-52.93004518 378.73182324 -52.61429914 376.96359239 -52.29882812 375.1953125 C-51.80571576 372.43663503 -51.31083674 369.6783282 -50.81079102 366.92089844 C-50.32535401 364.2398917 -49.84760989 361.55760474 -49.37109375 358.875 C-49.22111435 358.05813721 -49.07113495 357.24127441 -48.91661072 356.3996582 C-48.09795797 351.74961665 -47.72409931 347.40915487 -47.875 342.6875 C-47.545 342.6875 -47.215 342.6875 -46.875 342.6875 C-46.875 340.7075 -46.875 338.7275 -46.875 336.6875 C-46.215 336.6875 -45.555 336.6875 -44.875 336.6875 C-44.81131226 335.76179199 -44.81131226 335.76179199 -44.74633789 334.81738281 C-44.04470889 325.92413385 -42.51237066 317.20414548 -40.95629883 308.42871094 C-40.61044741 306.46896603 -40.27194458 304.5079288 -39.93359375 302.546875 C-39.73048584 301.39670898 -39.52737793 300.24654297 -39.31811523 299.06152344 C-38.85891489 295.56502277 -38.79912049 292.20987704 -38.875 288.6875 C-38.215 288.6875 -37.555 288.6875 -36.875 288.6875 C-36.83145386 288.06669052 -36.78790771 287.44588104 -36.74304199 286.80625916 C-36.09799139 278.70209723 -34.80437257 270.7570716 -33.40625 262.75390625 C-33.16311595 261.34437253 -32.9203245 259.93477967 -32.67785645 258.52513123 C-32.17281175 255.59416996 -31.66495934 252.66371527 -31.15478516 249.73364258 C-30.50179166 245.98305018 -29.85397252 242.2315878 -29.20798492 238.47978306 C-28.70830752 235.57906813 -28.2069332 232.67864878 -27.7049408 229.77833366 C-27.46544008 228.39452039 -27.22622993 227.01065679 -26.98731995 225.62674141 C-26.65392685 223.69823536 -26.31822545 221.7701288 -25.98242188 219.84204102 C-25.79224487 218.74714859 -25.60206787 217.65225616 -25.40612793 216.52418518 C-24.9735657 214.21392656 -24.48032365 211.95731361 -23.875 209.6875 C-24.69097656 209.5946875 -25.50695312 209.501875 -26.34765625 209.40625 C-30.6449607 208.53060878 -34.32897434 206.98667725 -38.3125 205.1875 C-39.10237305 204.83075195 -39.89224609 204.47400391 -40.70605469 204.10644531 C-69.27089306 190.92002535 -90.88676037 169.43244447 -101.875 139.6875 C-111.30250924 113.2963848 -109.97416689 82.74425913 -98.07299805 57.36401367 C-85.67038152 32.18421501 -65.78903586 14.88736651 -39.875 4.6875 C-39.04355469 4.3575 -38.21210938 4.0275 -37.35546875 3.6875 C-25.50380749 -0.88605388 -12.55642865 -0.63750008 0 0 Z M54.125 686.6875 C54.125 687.0175 54.125 687.3475 54.125 687.6875 C56.435 687.6875 58.745 687.6875 61.125 687.6875 C61.125 687.3575 61.125 687.0275 61.125 686.6875 C58.815 686.6875 56.505 686.6875 54.125 686.6875 Z " fill="#81D4FD" transform="translate(303.875,143.3125)"/>
<path d="M0 0 C0.7542627 0.03464355 1.50852539 0.06928711 2.28564453 0.10498047 C6.11102726 0.34281456 8.77092022 0.9260223 12.125 2.6875 C13.49159963 3.20379682 14.86729753 3.69649144 16.25 4.16796875 C25.04246087 7.23977207 33.09133411 10.37288853 40.97265625 15.40234375 C42.99339152 16.85838712 42.99339152 16.85838712 45.125 16.6875 C46.24853591 17.77592542 47.36345867 18.87404116 48.4453125 20.00390625 C50.55235675 22.1158506 52.77051973 24.08036328 55 26.0625 C56.70952751 27.60284236 58.41793912 29.14442449 60.125 30.6875 C61.05892578 31.51894531 61.05892578 31.51894531 62.01171875 32.3671875 C74.41405685 43.98895886 84.59252716 62.37059777 89.125 78.6875 C89.39352783 79.6480127 89.39352783 79.6480127 89.66748047 80.62792969 C95.68105784 102.92637608 95.70678403 127.45604257 84.6875 148.20703125 C82.2301962 152.10800103 79.98109811 155.11676792 76.125 157.6875 C72.19140539 158.48031752 68.59767366 158.51674562 65.05078125 156.51953125 C61.6507772 153.74678161 58.98793823 151.11005843 58.125 146.6875 C58.24454851 140.82962324 60.5071011 136.05663426 62.87109375 130.75 C69.03394297 115.69805673 67.61330152 96.9751526 61.68359375 82.0625 C51.92830528 59.40223351 36.77366625 42.6720326 14.24609375 32.37109375 C-0.48523053 26.56004735 -18.64782538 25.99985872 -33.875 30.6875 C-34.205 31.3475 -34.535 32.0075 -34.875 32.6875 C-36.86679457 33.3782958 -38.86844288 34.04083704 -40.875 34.6875 C-58.37011947 43.10045363 -69.63765572 57.88480167 -76.04638672 75.87231445 C-83.59139851 98.43380639 -80.72583277 122.56877952 -70.3828125 143.7421875 C-59.30644586 164.14602079 -40.76484965 176.00924078 -18.875 182.6875 C-18.82674072 182.02903076 -18.77848145 181.37056152 -18.72875977 180.69213867 C-18.16183934 173.69765785 -17.12555676 166.89006815 -15.8125 160 C-15.62623047 159.00033203 -15.43996094 158.00066406 -15.24804688 156.97070312 C-14.79486013 154.54208699 -14.33713408 152.11442649 -13.875 149.6875 C-13.545 149.6875 -13.215 149.6875 -12.875 149.6875 C-12.99167115 151.64634718 -13.11886828 153.60456769 -13.25 155.5625 C-13.31960938 156.65304687 -13.38921875 157.74359375 -13.4609375 158.8671875 C-13.77600085 161.77409273 -14.23924349 164.32042432 -14.90195751 167.14235592 C-16.12850502 173.2137068 -16.02950494 179.06067869 -15.85774231 185.2301178 C-15.83315787 186.46603365 -15.80857343 187.70194951 -15.78324401 188.97531736 C-15.72920314 191.68571939 -15.67156924 194.39579037 -15.6084379 197.10597122 C-15.43226642 204.76305292 -15.30695118 212.4211185 -15.17910767 220.07913208 C-15.16515117 220.89996588 -15.15119467 221.72079969 -15.13681524 222.56650724 C-14.78682491 243.41143756 -14.75073118 264.25584495 -14.7331543 285.10327148 C-14.73115425 287.08241374 -14.72912417 289.06155597 -14.72706473 291.04069817 C-14.71679636 301.33665003 -14.71057938 311.63260052 -14.70633507 321.92855644 C-14.7006875 335.1065225 -14.68370201 348.28446451 -14.66499329 361.4624176 C-14.66183015 363.73041595 -14.65867484 365.99841431 -14.65552729 368.26641268 C-14.65076489 371.69618926 -14.6460014 375.12596584 -14.64121684 378.55574239 C-14.6234737 391.32256035 -14.60714096 404.08937981 -14.59204102 416.85620117 C-14.59066514 418.01656417 -14.58928927 419.17692717 -14.58787171 420.37245268 C-14.56576311 439.33213458 -14.55513216 458.29180972 -14.54767027 477.25150227 C-14.53959826 496.86059276 -14.51633907 516.46962639 -14.4797166 536.07868439 C-14.45778599 548.10748581 -14.4479976 560.13617021 -14.45421693 572.16499061 C-14.45739248 580.36974956 -14.44605541 588.57440781 -14.42332252 596.77913558 C-14.41068283 601.50218717 -14.40445287 606.2250142 -14.41573906 610.94807434 C-14.42594833 615.27557627 -14.41757539 619.60264301 -14.3948761 623.93009377 C-14.38990679 625.48816787 -14.39156159 627.04628149 -14.40080877 628.60433608 C-14.47687402 642.52116748 -12.2793214 657.38887321 -2.0625 667.75 C-1.340625 668.389375 -0.61875 669.02875 0.125 669.6875 C-0.49761719 669.51734375 -1.12023437 669.3471875 -1.76171875 669.171875 C-8.68992067 667.35527533 -15.65876283 665.87056391 -22.6875 664.5 C-24.02977661 664.23171387 -24.02977661 664.23171387 -25.39916992 663.95800781 C-29.27806261 663.2164176 -32.92985785 662.58774348 -36.88671875 662.69921875 C-39.875 662.6875 -39.875 662.6875 -41.875 660.6875 C-44.17272323 660.04843665 -46.48899476 659.47532659 -48.8125 658.9375 C-63.04306379 655.36369183 -74.1852159 647.70923735 -82.30859375 635.3828125 C-88.75504679 624.29041201 -91.62636777 613.43447979 -90.2265625 600.65234375 C-90.13955582 599.84558197 -90.05254913 599.03882019 -89.96290588 598.20761108 C-88.47163 585.32903913 -86.06302701 572.57472175 -83.8125 559.8125 C-83.34697493 557.14736697 -82.88353259 554.48187285 -82.41992188 551.81640625 C-81.5748731 546.96962403 -80.72825454 542.12313402 -79.87475586 537.27783203 C-79.620662 535.8349028 -79.620662 535.8349028 -79.36143494 534.36282349 C-78.89506718 531.79786666 -78.39470962 529.24213027 -77.875 526.6875 C-78.535 526.3575 -79.195 526.0275 -79.875 525.6875 C-79.215 525.3575 -78.555 525.0275 -77.875 524.6875 C-77.19142016 521.78883633 -76.63443211 518.94442829 -76.140625 516.01171875 C-75.98192932 515.11093094 -75.82323364 514.21014313 -75.659729 513.28205872 C-75.13937423 510.31449453 -74.63192066 507.3448861 -74.125 504.375 C-73.77076824 502.33453361 -73.41594653 500.29416955 -73.06054688 498.25390625 C-72.15974909 493.06618848 -71.27085341 487.87651367 -70.38647461 482.68597412 C-69.89866128 479.82621215 -69.40790037 476.96697431 -68.91601562 474.10791016 C-68.19452774 469.91082556 -67.47851007 465.71285464 -66.76843262 461.51382446 C-66.50742435 459.97051086 -66.24547077 458.42735681 -65.98254395 456.8843689 C-65.61940928 454.74653458 -65.26190032 452.60784048 -64.90625 450.46875 C-64.70580078 449.27314453 -64.50535156 448.07753906 -64.29882812 446.84570312 C-63.80693811 443.80760042 -63.80693811 443.80760042 -63.93554688 441.20117188 C-63.85410892 437.82018316 -62.83271073 434.92654492 -61.875 431.6875 C-61.34745088 428.98974799 -60.8534921 426.30368748 -60.40234375 423.59375 C-60.27436905 422.84339478 -60.14639435 422.09303955 -60.01454163 421.31994629 C-59.610201 418.94306802 -59.21137712 416.5653005 -58.8125 414.1875 C-58.54135405 412.59239035 -58.26987255 410.9973377 -57.99804688 409.40234375 C-57.73667859 407.86203014 -57.47560114 406.32166715 -57.21484375 404.78125 C-57.09503647 404.0737561 -56.97522919 403.36626221 -56.85179138 402.6373291 C-56.32824551 399.51429524 -55.83347088 396.39178907 -55.39306641 393.25585938 C-54.7729543 388.98462538 -54.0152412 384.74647504 -53.24609375 380.5 C-52.93004518 378.73182324 -52.61429914 376.96359239 -52.29882812 375.1953125 C-51.80571576 372.43663503 -51.31083674 369.6783282 -50.81079102 366.92089844 C-50.32535401 364.2398917 -49.84760989 361.55760474 -49.37109375 358.875 C-49.22111435 358.05813721 -49.07113495 357.24127441 -48.91661072 356.3996582 C-48.09795797 351.74961665 -47.72409931 347.40915487 -47.875 342.6875 C-47.545 342.6875 -47.215 342.6875 -46.875 342.6875 C-46.875 340.7075 -46.875 338.7275 -46.875 336.6875 C-46.215 336.6875 -45.555 336.6875 -44.875 336.6875 C-44.81131226 335.76179199 -44.81131226 335.76179199 -44.74633789 334.81738281 C-44.04470889 325.92413385 -42.51237066 317.20414548 -40.95629883 308.42871094 C-40.61044741 306.46896603 -40.27194458 304.5079288 -39.93359375 302.546875 C-39.73048584 301.39670898 -39.52737793 300.24654297 -39.31811523 299.06152344 C-38.85891489 295.56502277 -38.79912049 292.20987704 -38.875 288.6875 C-38.215 288.6875 -37.555 288.6875 -36.875 288.6875 C-36.83145386 288.06669052 -36.78790771 287.44588104 -36.74304199 286.80625916 C-36.09799139 278.70209723 -34.80437257 270.7570716 -33.40625 262.75390625 C-33.16311595 261.34437253 -32.9203245 259.93477967 -32.67785645 258.52513123 C-32.17281175 255.59416996 -31.66495934 252.66371527 -31.15478516 249.73364258 C-30.50179166 245.98305018 -29.85397252 242.2315878 -29.20798492 238.47978306 C-28.70830752 235.57906813 -28.2069332 232.67864878 -27.7049408 229.77833366 C-27.46544008 228.39452039 -27.22622993 227.01065679 -26.98731995 225.62674141 C-26.65392685 223.69823536 -26.31822545 221.7701288 -25.98242188 219.84204102 C-25.79224487 218.74714859 -25.60206787 217.65225616 -25.40612793 216.52418518 C-24.9735657 214.21392656 -24.48032365 211.95731361 -23.875 209.6875 C-24.69097656 209.5946875 -25.50695312 209.501875 -26.34765625 209.40625 C-30.6449607 208.53060878 -34.32897434 206.98667725 -38.3125 205.1875 C-39.10237305 204.83075195 -39.89224609 204.47400391 -40.70605469 204.10644531 C-69.27089306 190.92002535 -90.88676037 169.43244447 -101.875 139.6875 C-111.30250924 113.2963848 -109.97416689 82.74425913 -98.07299805 57.36401367 C-85.67038152 32.18421501 -65.78903586 14.88736651 -39.875 4.6875 C-39.04355469 4.3575 -38.21210938 4.0275 -37.35546875 3.6875 C-25.50380749 -0.88605388 -12.55642865 -0.63750008 0 0 Z " fill="#60C8FE" transform="translate(303.875,143.3125)"/>
<path d="M0 0 C10.17927197 6.93426686 15.17670596 16.93909618 17.80859375 28.71484375 C18.92695016 41.30059544 18.5149031 54.39431804 11.05859375 65.08984375 C4.56432173 72.8048436 -3.06295253 78.84443244 -13.19140625 80.71484375 C-26.90989051 81.45638344 -38.13270311 80.71067342 -49.19140625 71.71484375 C-58.21079661 63.53589658 -61.64948026 51.74368566 -62.4453125 39.953125 C-62.96150424 26.85161213 -59.89586535 15.71314584 -51.41015625 5.58984375 C-38.57427719 -8.26475587 -15.85669161 -9.29920061 0 0 Z " fill="#FAFDFE" transform="translate(512.19140625,378.28515625)"/>
<path d="M0 0 C1.46119263 0.00676758 1.46119263 0.00676758 2.9519043 0.01367188 C4.05272339 0.02237305 4.05272339 0.02237305 5.17578125 0.03125 C5.66868652 1.02229736 6.1615918 2.01334473 6.66943359 3.03442383 C18.02798879 25.95519415 18.02798879 25.95519415 29.80981445 48.65942383 C32.86835816 54.40921741 35.82076253 60.2086806 38.73828125 66.03125 C39.16882813 66.88783203 39.599375 67.74441406 40.04296875 68.62695312 C40.43871094 69.42037109 40.83445312 70.21378906 41.2421875 71.03125 C41.59224854 71.7325 41.94230957 72.43375 42.30297852 73.15625 C43.17578125 75.03125 43.17578125 75.03125 44.17578125 78.03125 C42.1350661 78.37035994 40.09315504 78.70227704 38.05078125 79.03125 C36.34535156 79.3096875 36.34535156 79.3096875 34.60546875 79.59375 C31.41440523 80.00081049 28.38760334 80.10934902 25.17578125 80.03125 C23.83758627 77.4086268 22.50506615 74.78338401 21.17578125 72.15625 C20.79421875 71.40988281 20.41265625 70.66351563 20.01953125 69.89453125 C19.65859375 69.17910156 19.29765625 68.46367187 18.92578125 67.7265625 C18.590625 67.06672363 18.25546875 66.40688477 17.91015625 65.72705078 C17.17578125 64.03125 17.17578125 64.03125 17.17578125 62.03125 C16.5415625 62.16402344 15.90734375 62.29679687 15.25390625 62.43359375 C5.28185957 64.32056943 -4.70145511 64.65114623 -14.82421875 65.03125 C-14.94539062 65.82789063 -15.0665625 66.62453125 -15.19140625 67.4453125 C-15.35898437 68.50492187 -15.5265625 69.56453125 -15.69921875 70.65625 C-15.86164062 71.70039063 -16.0240625 72.74453125 -16.19140625 73.8203125 C-16.82421875 77.03125 -16.82421875 77.03125 -18.82421875 83.03125 C-25.09421875 83.69125 -31.36421875 84.35125 -37.82421875 85.03125 C-34.55312188 71.63811102 -30.96685596 58.33881233 -27.33349609 45.03979492 C-26.32367172 41.34174674 -25.31793426 37.64260324 -24.3125 33.94335938 C-23.66040198 31.55201631 -23.00806633 29.16073803 -22.35546875 26.76953125 C-21.91309875 25.14087883 -21.91309875 25.14087883 -21.46179199 23.47932434 C-19.39964126 15.94811231 -17.15926778 8.48221455 -14.82421875 1.03125 C-9.84163108 0.37779588 -5.02777683 -0.03035639 0 0 Z " fill="#FAFDFE" transform="translate(651.82421875,361.96875)"/>
<path d="M0 0 C4.87595754 3.7804781 8.3200574 9.16529911 10.8359375 14.75 C10.8359375 16.07 10.8359375 17.39 10.8359375 18.75 C2.9159375 21.225 2.9159375 21.225 -5.1640625 23.75 C-10.1640625 16 -10.1640625 16 -10.1640625 13.75 C-16.22664447 11.12834293 -23.23258043 10.28468888 -29.51171875 12.625 C-34.92332014 15.70000341 -37.77288806 19.55767704 -39.7421875 25.4921875 C-41.74924694 36.2336723 -40.66307862 47.21026954 -35.03125 56.6484375 C-32.10804153 60.61703178 -28.80086962 62.33538088 -24.1640625 63.75 C-17.96079475 64.43925197 -13.22053215 63.58168034 -8.1640625 59.75 C-5.00234692 55.88672031 -3.73664456 51.46774617 -2.1640625 46.75 C3.4459375 47.74 9.0559375 48.73 14.8359375 49.75 C12.73937881 60.35612045 9.56615366 68.63741402 0.5859375 75.1875 C-9.34573086 81.13975625 -19.94370813 81.96431646 -31.1015625 79.75 C-41.08608524 76.97794741 -48.57761316 70.87455619 -53.7265625 61.92578125 C-59.62484017 48.89507541 -61.49564995 34.04869278 -57.1328125 20.2734375 C-53.59549274 11.05929007 -48.05435621 3.10833909 -39.1640625 -1.625 C-26.49704486 -7.17295734 -12.15908888 -7.02330043 0 0 Z " fill="#F9FCFE" transform="translate(596.1640625,371.25)"/>
<path d="M0 0 C0.74886475 0.00523682 1.49772949 0.01047363 2.26928711 0.01586914 C3.07817383 0.0190918 3.88706055 0.02231445 4.72045898 0.02563477 C5.5705957 0.03401367 6.42073242 0.04239258 7.29663086 0.05102539 C8.15063477 0.05553711 9.00463867 0.06004883 9.88452148 0.06469727 C12.00108749 0.07652166 14.11761771 0.0944577 16.23413086 0.11352539 C7.44726562 35.26098633 7.44726562 35.26098633 6.90271187 37.43915558 C6.54232521 38.88073266 6.18196718 40.32231691 5.82163811 41.76390839 C4.93784658 45.29960233 4.05357649 48.83517512 3.16824341 52.3704834 C1.6460365 58.45082115 0.12800145 64.53202693 -1.3659668 70.61938477 C-1.599272 71.56614075 -1.83257721 72.51289673 -2.07295227 73.48834229 C-2.49273295 75.19395567 -2.90975065 76.90025254 -3.32341003 78.60736084 C-4.65406008 84.00171633 -4.65406008 84.00171633 -5.76586914 85.11352539 C-7.17914861 85.26973094 -8.59941504 85.36408712 -10.01977539 85.42993164 C-10.8737793 85.47182617 -11.7277832 85.5137207 -12.60766602 85.55688477 C-13.50549805 85.59620117 -14.40333008 85.63551758 -15.32836914 85.67602539 C-16.68091797 85.74080078 -16.68091797 85.74080078 -18.06079102 85.80688477 C-20.29565399 85.91330681 -22.53063222 86.01532527 -24.76586914 86.11352539 C-29.42416266 76.96834554 -33.80405101 67.75278756 -37.95336914 58.36352539 C-39.08001269 55.82866063 -40.20964016 53.29513315 -41.34008789 50.76196289 C-41.62338959 50.12674713 -41.90669128 49.49153137 -42.19857788 48.83706665 C-46.08538557 40.13824475 -50.10127131 31.49904293 -54.10961914 22.85571289 C-54.54790039 21.90792969 -54.98618164 20.96014648 -55.43774414 19.98364258 C-56.36127919 17.98785618 -57.28864642 15.99384045 -58.21899414 14.0012207 C-58.67790039 13.00960938 -59.13680664 12.01799805 -59.60961914 10.99633789 C-60.02405273 10.10575684 -60.43848633 9.21517578 -60.86547852 8.29760742 C-61.76586914 6.11352539 -61.76586914 6.11352539 -61.76586914 4.11352539 C-55.49586914 3.78352539 -49.22586914 3.45352539 -42.76586914 3.11352539 C-38.21813817 12.77309208 -33.79443016 22.46976932 -29.53100586 32.2578125 C-28.63625883 34.31160785 -27.73838641 36.36401564 -26.84008789 38.41625977 C-23.40224743 46.28290579 -20.03499985 54.17487703 -16.76586914 62.11352539 C-15.57809392 56.97491234 -14.39088585 51.83616866 -13.20410156 46.69732666 C-12.78825358 44.89711703 -12.37223901 43.09694587 -11.95605469 41.29681396 C-8.9929216 28.48548286 -8.9929216 28.48548286 -6.09008789 15.66040039 C-5.86023193 14.63446777 -5.63037598 13.60853516 -5.39355469 12.55151367 C-4.98426342 10.71726474 -4.57802807 8.88233043 -4.17529297 7.04663086 C-2.64015826 0.16973228 -2.64015826 0.16973228 0 0 Z " fill="#FAFCFE" transform="translate(429.765869140625,378.886474609375)"/>
<path d="M0 0 C4.39405491 -0.16274277 8.2700717 -0.03314962 12.5625 0.9375 C16.66765806 1.83317085 20.61672005 2.2176338 24.8125 2.4375 C30.56537004 2.77190328 36.17909672 3.38844931 41.875 4.25 C51.58476638 5.71613125 61.31854255 6.89827936 71.06866455 8.05593872 C85.53022942 9.7767698 99.93585883 11.65867153 114.32543945 13.91137695 C130.89614892 16.49497338 147.51303982 18.75756185 164.125 21.05786133 C176.86945273 22.82802521 189.59814835 24.66322065 202.30467224 26.69020081 C208.52418238 27.67031211 214.72735031 28.45113166 221 29 C217.47309587 31.74245208 213.78960804 33.6878316 209.75 35.5625 C209.11964844 35.86607422 208.48929688 36.16964844 207.83984375 36.48242188 C207.20691406 36.77826172 206.57398438 37.07410156 205.921875 37.37890625 C205.08027832 37.77444702 205.08027832 37.77444702 204.22167969 38.17797852 C189.22144815 43.72806419 173.36544107 41.29369678 158.25 37.5625 C156.59848582 37.17211706 154.94652632 36.78361454 153.29418945 36.39672852 C148.37554889 35.23818799 143.46438533 34.05004663 138.55352783 32.85900879 C134.63207336 31.91105959 130.70870482 30.97136992 126.78466797 30.03417969 C126.06405119 29.86207128 125.34343441 29.68996286 124.60098076 29.51263905 C123.10846448 29.1562497 121.61593795 28.79990327 120.12340164 28.44359779 C110.17864558 26.06945779 100.23463269 23.69245279 90.29589844 21.29321289 C75.25978726 17.66597693 60.2125747 14.09807977 45.1328125 10.65625 C44.41164434 10.49162703 43.69047619 10.32700405 42.94745445 10.1573925 C21.5736954 5.07412913 21.5736954 5.07412913 0 1 C0 0.67 0 0.34 0 0 Z " fill="#4DBEFE" transform="translate(403,835)"/>
<path d="M0 0 C7.32761562 4.39656937 10.12813231 11.05530089 12.2578125 19.05078125 C14.19299397 28.18529853 12.38552693 37.37595446 8.1015625 45.6484375 C3.84787835 50.50979081 -0.75199472 52.98721466 -7.0859375 54.1484375 C-13.70598518 54.44534994 -18.74517233 53.01589062 -24.10546875 49.09765625 C-30.78828447 42.5202893 -32.31650321 33.93859514 -32.3984375 24.9609375 C-32.42414451 18.21713131 -31.84904289 12.93077017 -28.0859375 7.1484375 C-27.5290625 6.2203125 -26.9721875 5.2921875 -26.3984375 4.3359375 C-19.12427801 -2.54502418 -9.12254427 -3.96158297 0 0 Z " fill="#0185FE" transform="translate(500.0859375,389.8515625)"/>
<path d="M0 0 C3.03446161 1.5172308 3.46381054 3.8660344 4.8203125 6.93359375 C5.35527344 8.13951172 5.89023437 9.34542969 6.44140625 10.58789062 C6.71742676 11.21928955 6.99344727 11.85068848 7.27783203 12.5012207 C8.12148513 14.42946644 8.97589743 16.35265881 9.83203125 18.27539062 C14 27.72648683 14 27.72648683 14 30 C3.605 30.495 3.605 30.495 -7 31 C-5.87391027 21.99128216 -5.87391027 21.99128216 -4.84375 17.6953125 C-4.62589844 16.78265625 -4.40804687 15.87 -4.18359375 14.9296875 C-3.95800781 14.00414062 -3.73242188 13.07859375 -3.5 12.125 C-3.27441406 11.17625 -3.04882812 10.2275 -2.81640625 9.25 C-1.13699777 2.27399554 -1.13699777 2.27399554 0 0 Z " fill="#057DFD" transform="translate(648,381)"/>
<path d="M0 0 C4.39405491 -0.16274277 8.2700717 -0.03314962 12.5625 0.9375 C18.29651087 2.22563973 24.02385684 2.37574553 29.875 2.55859375 C30.90625 2.70425781 31.9375 2.84992187 33 3 C33.66 3.99 34.32 4.98 35 6 C28.88219033 7.73896645 23.50855147 6.05307545 17.5 4.625 C15.46901657 4.15769408 13.43777358 3.69151458 11.40625 3.2265625 C10.46523438 3.0090332 9.52421875 2.79150391 8.5546875 2.56738281 C5.7173598 1.93722708 2.87544342 1.42343859 0 1 C0 0.67 0 0.34 0 0 Z " fill="#6BC8F9" transform="translate(403,835)"/>
<path d="M0 0 C1.31438565 3.94315696 0.25943974 4.9138635 -1.5625 8.5625 C-3.86243565 13.85427394 -4.49510348 17.29602174 -2.953125 22.86328125 C-1.51328285 26.0911241 0.23854039 27.81990031 3 30 C-0.26485434 29.75815894 -1.26362667 28.74863504 -3.6875 26.4375 C-6.38373047 22.89292287 -7.53983329 19.4479222 -7 15 C-5.64188824 11.16000558 -3.89508291 7.6000985 -2 4 C-1.33154543 2.66756212 -0.66417096 1.33457827 0 0 Z " fill="#84E0FE" transform="translate(369,270)"/>
<path d="M0 0 C-0.33 3.63 -0.66 7.26 -1 11 C-1.33 11 -1.66 11 -2 11 C-2 8.03 -2 5.06 -2 2 C-5.63 2 -9.26 2 -13 2 C-8.61501596 -0.92332269 -5.2225328 -0.1356502 0 0 Z " fill="#99E3FD" transform="translate(698,793)"/>
<path d="M0 0 C1.16144531 0.00902344 2.32289063 0.01804687 3.51953125 0.02734375 C4.39996094 0.03894531 5.28039062 0.05054688 6.1875 0.0625 C1.55475905 2.37887047 -0.6564038 3.13063687 -5.9375 2.625 C-7.03320312 2.52316406 -8.12890625 2.42132812 -9.2578125 2.31640625 C-10.52238281 2.19072266 -10.52238281 2.19072266 -11.8125 2.0625 C-11.8125 1.7325 -11.8125 1.4025 -11.8125 1.0625 C-7.81454108 0.10630267 -4.10446078 -0.0414592 0 0 Z " fill="#9DE5FE" transform="translate(599.8125,801.9375)"/>
<path d="M0 0 C0.33 0 0.66 0 1 0 C1 5.28 1 10.56 1 16 C0.67 16 0.34 16 0 16 C0 13.36 0 10.72 0 8 C-0.66 8 -1.32 8 -2 8 C-2.20086443 4.28400809 -2.1519437 3.22791555 0 0 Z " fill="#9FE3F9" transform="translate(299,276)"/>
<path d="M0 0 C0.66 0.99 1.32 1.98 2 3 C-2.41062136 4.0257259 -4.92630576 4.03684712 -9 2 C-5.89782379 0.16167336 -3.60591321 -0.47446226 0 0 Z " fill="#60C4FB" transform="translate(436,838)"/>
<path d="M0 0 C2.64 0 5.28 0 8 0 C5.61426621 1.89213369 3.92824652 3.02391783 1 4 C0.67 2.68 0.34 1.36 0 0 Z " fill="#5EC1FB" transform="translate(616,864)"/>
<path d="M0 0 C1.65 0.33 3.3 0.66 5 1 C4.67 1.66 4.34 2.32 4 3 C2.35 2.67 0.7 2.34 -1 2 C-0.67 1.34 -0.34 0.68 0 0 Z " fill="#77C8F3" transform="translate(401,836)"/>
<path d="M0 0 C2.97 0.495 2.97 0.495 6 1 C6 1.33 6 1.66 6 2 C4.35 2 2.7 2 1 2 C0.67 1.34 0.34 0.68 0 0 Z " fill="#75C9F5" transform="translate(407,837)"/>
<path d="M0 0 C1.98 0.99 1.98 0.99 4 2 C2.68 1.67 1.36 1.34 0 1 C0 0.67 0 0.34 0 0 Z " fill="#68C5F9" transform="translate(267,350)"/>
<path d="M0 0 C0.99 0.495 0.99 0.495 2 1 C1.67 1.99 1.34 2.98 1 4 C0.67 2.68 0.34 1.36 0 0 Z " fill="#68BDEB" transform="translate(200,282)"/>
<path d="M0 0 C4 1 4 1 4 1 Z " fill="#6CC5F5" transform="translate(440,845)"/>
<path d="M0 0 C4 1 4 1 4 1 Z " fill="#0B89EF" transform="translate(593,208)"/>
<path d="M0 0 C3 1 3 1 3 1 Z " fill="#6FC6F3" transform="translate(432,843)"/>
<path d="M0 0 C3 1 3 1 3 1 Z " fill="#78C9F3" transform="translate(390,835)"/>
<path d="M0 0 C3 1 3 1 3 1 Z " fill="#78C7F1" transform="translate(337,828)"/>
<path d="M0 0 C0.33 0.66 0.66 1.32 1 2 C0.34 1.67 -0.32 1.34 -1 1 C-0.67 0.67 -0.34 0.34 0 0 Z " fill="#76C7F3" transform="translate(297,812)"/>
<path d="" fill="#64C1F3" transform="translate(0,0)"/>
<path d="" fill="#66C2F7" transform="translate(0,0)"/>
<path d="" fill="#66C3F4" transform="translate(0,0)"/>
<path d="" fill="#67C3F5" transform="translate(0,0)"/>
<path d="" fill="#68BDEA" transform="translate(0,0)"/>
<path d="M0 0 C3 1 3 1 3 1 Z " fill="#62C5F9" transform="translate(313,175)"/>
<path d="M0 0 C2 1 2 1 2 1 Z " fill="#60BDEF" transform="translate(593,877)"/>
<path d="M0 0 C2 1 2 1 2 1 Z " fill="#58BCF3" transform="translate(552,871)"/>
<path d="M0 0 C2 1 2 1 2 1 Z " fill="#7AC6EF" transform="translate(646,867)"/>
<path d="M0 0 C2 1 2 1 2 1 Z " fill="#76C8F3" transform="translate(625,867)"/>
<path d="M0 0 C2 1 2 1 2 1 Z " fill="#76C6F1" transform="translate(660,863)"/>
<path d="M0 0 C2 1 2 1 2 1 Z " fill="#5DBCF3" transform="translate(517,863)"/>
<path d="M0 0 C2 1 2 1 2 1 Z " fill="#61C1F4" transform="translate(479,854)"/>
<path d="M0 0 C2 1 2 1 2 1 Z " fill="#63C0F3" transform="translate(474,853)"/>
<path d="M0 0 C2 1 2 1 2 1 Z " fill="#74C8F6" transform="translate(416,839)"/>
<path d="M0 0 C2 1 2 1 2 1 Z " fill="#78C8F0" transform="translate(397,836)"/>
<path d="M0 0 C2 1 2 1 2 1 Z " fill="#78C6F1" transform="translate(346,829)"/>
<path d="" fill="#75C8F6" transform="translate(0,0)"/>
<path d="" fill="#76C6EF" transform="translate(0,0)"/>
<path d="M0 0 C2 1 2 1 2 1 Z " fill="#74C7F2" transform="translate(304,815)"/>
<path d="" fill="#77C7F2" transform="translate(0,0)"/>
<path d="M0 0 C2 1 2 1 2 1 Z " fill="#76C8F4" transform="translate(299,812)"/>
<path d="" fill="#73C5F1" transform="translate(0,0)"/>
<path d="" fill="#62BBF3" transform="translate(0,0)"/>
<path d="" fill="#1588EA" transform="translate(0,0)"/>
<path d="" fill="#67BDEC" transform="translate(0,0)"/>
<path d="" fill="#64C1F3" transform="translate(0,0)"/>
<path d="" fill="#65C1F2" transform="translate(0,0)"/>
<path d="" fill="#66C3F1" transform="translate(0,0)"/>
<path d="" fill="#65C3F4" transform="translate(0,0)"/>
<path d="" fill="#6AC5F6" transform="translate(0,0)"/>
<path d="" fill="#77CEFC" transform="translate(0,0)"/>
<path d="M0 0 C2 1 2 1 2 1 Z " fill="#68C9FB" transform="translate(262,315)"/>
<path d="" fill="#74C8F8" transform="translate(0,0)"/>
<path d="" fill="#68BFEE" transform="translate(0,0)"/>
<path d="" fill="#65BBE8" transform="translate(0,0)"/>
<path d="" fill="#50B7F9" transform="translate(0,0)"/>
<path d="M0 0 C2 1 2 1 2 1 Z " fill="#198EF1" transform="translate(454,219)"/>
<path d="M0 0 C2 1 2 1 2 1 Z " fill="#0E8AED" transform="translate(497,216)"/>
<path d="M0 0 C2 1 2 1 2 1 Z " fill="#0A87ED" transform="translate(601,208)"/>
<path d="M0 0 C2 1 2 1 2 1 Z " fill="#1086E9" transform="translate(634,205)"/>
<path d="M0 0 C2 1 2 1 2 1 Z " fill="#67C8FA" transform="translate(274,174)"/>
<path d="M0 0 C2 1 2 1 2 1 Z " fill="#65C5FB" transform="translate(306,173)"/>
<path d="M0 0 C2 1 2 1 2 1 Z " fill="#66C6F9" transform="translate(283,172)"/>
<path d="M0 0 C2 1 2 1 2 1 Z " fill="#67BDEB" transform="translate(250,152)"/>
<path d="M0 0 C2 1 2 1 2 1 Z " fill="#68BEEB" transform="translate(264,146)"/>
<path d="M0 0 C2 1 2 1 2 1 Z " fill="#67BCEA" transform="translate(267,145)"/>
<path d="" fill="#5EBBEF" transform="translate(0,0)"/>
<path d="" fill="#5FBAEE" transform="translate(0,0)"/>
<path d="" fill="#5EBCF2" transform="translate(0,0)"/>
<path d="" fill="#5DBBF2" transform="translate(0,0)"/>
<path d="" fill="#5DBDF3" transform="translate(0,0)"/>
<path d="" fill="#6AC4F5" transform="translate(0,0)"/>
<path d="" fill="#59BCF3" transform="translate(0,0)"/>
<path d="" fill="#57BBF5" transform="translate(0,0)"/>
<path d="" fill="#59BCF2" transform="translate(0,0)"/>
<path d="" fill="#58BAF2" transform="translate(0,0)"/>
<path d="" fill="#76C7EE" transform="translate(0,0)"/>
<path d="" fill="#7ACAF4" transform="translate(0,0)"/>
<path d="" fill="#75C8F2" transform="translate(0,0)"/>
<path d="" fill="#5CBEF3" transform="translate(0,0)"/>
<path d="" fill="#60BEF2" transform="translate(0,0)"/>
<path d="" fill="#63C0F2" transform="translate(0,0)"/>
<path d="" fill="#77C7EF" transform="translate(0,0)"/>
<path d="" fill="#64C1F3" transform="translate(0,0)"/>
<path d="" fill="#7AC8EF" transform="translate(0,0)"/>
<path d="" fill="#6BC6F6" transform="translate(0,0)"/>
<path d="" fill="#6BC2F4" transform="translate(0,0)"/>
<path d="" fill="#73C5F3" transform="translate(0,0)"/>
<path d="" fill="#76C6EF" transform="translate(0,0)"/>
<path d="" fill="#74C7F1" transform="translate(0,0)"/>
<path d="" fill="#74C8F1" transform="translate(0,0)"/>
<path d="" fill="#77C7F1" transform="translate(0,0)"/>
<path d="" fill="#76C6F1" transform="translate(0,0)"/>
<path d="" fill="#76C7F2" transform="translate(0,0)"/>
<path d="" fill="#76C9F2" transform="translate(0,0)"/>
<path d="" fill="#78C7F3" transform="translate(0,0)"/>
<path d="" fill="#75C6F2" transform="translate(0,0)"/>
<path d="" fill="#7AC8F1" transform="translate(0,0)"/>
<path d="" fill="#78C7F0" transform="translate(0,0)"/>
<path d="" fill="#7CC9EF" transform="translate(0,0)"/>
<path d="" fill="#79C8F0" transform="translate(0,0)"/>
<path d="" fill="#76C8F3" transform="translate(0,0)"/>
<path d="" fill="#7AC8F0" transform="translate(0,0)"/>
<path d="" fill="#77C9F0" transform="translate(0,0)"/>
<path d="" fill="#77C8F1" transform="translate(0,0)"/>
<path d="" fill="#75C7F2" transform="translate(0,0)"/>
<path d="" fill="#77C6F4" transform="translate(0,0)"/>
<path d="" fill="#71C4F1" transform="translate(0,0)"/>
<path d="" fill="#6CC3F3" transform="translate(0,0)"/>
<path d="" fill="#68C2F0" transform="translate(0,0)"/>
<path d="" fill="#69C2F0" transform="translate(0,0)"/>
<path d="" fill="#65C1EF" transform="translate(0,0)"/>
<path d="" fill="#68BCEB" transform="translate(0,0)"/>
<path d="" fill="#64BAE5" transform="translate(0,0)"/>
<path d="" fill="#67BBEA" transform="translate(0,0)"/>
<path d="" fill="#68BEEE" transform="translate(0,0)"/>
<path d="" fill="#68BCEB" transform="translate(0,0)"/>
<path d="" fill="#65BCEB" transform="translate(0,0)"/>
<path d="" fill="#64BCEC" transform="translate(0,0)"/>
<path d="" fill="#67BEEB" transform="translate(0,0)"/>
<path d="" fill="#67BCED" transform="translate(0,0)"/>
<path d="" fill="#69BCE7" transform="translate(0,0)"/>
<path d="" fill="#0F87ED" transform="translate(0,0)"/>
<path d="" fill="#65BFF0" transform="translate(0,0)"/>
<path d="" fill="#65BFED" transform="translate(0,0)"/>
<path d="" fill="#67C1F1" transform="translate(0,0)"/>
<path d="" fill="#67C0F0" transform="translate(0,0)"/>
<path d="" fill="#66C1F0" transform="translate(0,0)"/>
<path d="" fill="#66C1F0" transform="translate(0,0)"/>
<path d="" fill="#6AC1F0" transform="translate(0,0)"/>
<path d="" fill="#0F86F0" transform="translate(0,0)"/>
<path d="" fill="#67C2F3" transform="translate(0,0)"/>
<path d="" fill="#67BFF0" transform="translate(0,0)"/>
<path d="" fill="#66C2F0" transform="translate(0,0)"/>
<path d="" fill="#65C0F1" transform="translate(0,0)"/>
<path d="" fill="#0E89F3" transform="translate(0,0)"/>
<path d="" fill="#108BF0" transform="translate(0,0)"/>
<path d="" fill="#65C3F2" transform="translate(0,0)"/>
<path d="" fill="#0C88F3" transform="translate(0,0)"/>
<path d="" fill="#0E87EF" transform="translate(0,0)"/>
<path d="" fill="#108AF3" transform="translate(0,0)"/>
<path d="" fill="#67C4F3" transform="translate(0,0)"/>
<path d="" fill="#68C5F6" transform="translate(0,0)"/>
<path d="" fill="#67C5F8" transform="translate(0,0)"/>
<path d="" fill="#67C3F7" transform="translate(0,0)"/>
<path d="" fill="#69C4FB" transform="translate(0,0)"/>
<path d="" fill="#69C5F7" transform="translate(0,0)"/>
<path d="" fill="#69C4F8" transform="translate(0,0)"/>
<path d="" fill="#66C1F2" transform="translate(0,0)"/>
<path d="" fill="#67C0F0" transform="translate(0,0)"/>
<path d="" fill="#0B87F0" transform="translate(0,0)"/>
<path d="" fill="#68C3F1" transform="translate(0,0)"/>
<path d="" fill="#67C0EF" transform="translate(0,0)"/>
<path d="" fill="#66C1EE" transform="translate(0,0)"/>
<path d="" fill="#74CFFB" transform="translate(0,0)"/>
<path d="" fill="#66C2EF" transform="translate(0,0)"/>
<path d="" fill="#72CEFD" transform="translate(0,0)"/>
<path d="" fill="#6DCAFA" transform="translate(0,0)"/>
<path d="" fill="#66C1EF" transform="translate(0,0)"/>
<path d="" fill="#66BDEE" transform="translate(0,0)"/>
<path d="" fill="#67C8F8" transform="translate(0,0)"/>
<path d="" fill="#69C8FB" transform="translate(0,0)"/>
<path d="" fill="#68C9F9" transform="translate(0,0)"/>
<path d="" fill="#69C9F9" transform="translate(0,0)"/>
<path d="" fill="#67C6FB" transform="translate(0,0)"/>
<path d="" fill="#0F8AF0" transform="translate(0,0)"/>
<path d="" fill="#50B3F9" transform="translate(0,0)"/>
<path d="" fill="#69BEEB" transform="translate(0,0)"/>
<path d="" fill="#69BEEB" transform="translate(0,0)"/>
<path d="" fill="#66BCEA" transform="translate(0,0)"/>
<path d="" fill="#67BDE9" transform="translate(0,0)"/>
<path d="" fill="#67BCE8" transform="translate(0,0)"/>
<path d="" fill="#67BBE6" transform="translate(0,0)"/>
<path d="" fill="#0D84EC" transform="translate(0,0)"/>
<path d="" fill="#65BBE8" transform="translate(0,0)"/>
<path d="" fill="#67BAE8" transform="translate(0,0)"/>
<path d="" fill="#67BAE7" transform="translate(0,0)"/>
<path d="" fill="#38A8F9" transform="translate(0,0)"/>
<path d="" fill="#3AA9F9" transform="translate(0,0)"/>
<path d="" fill="#4CB6FC" transform="translate(0,0)"/>
<path d="" fill="#66C6F9" transform="translate(0,0)"/>
<path d="" fill="#178FEF" transform="translate(0,0)"/>
<path d="" fill="#57BDFB" transform="translate(0,0)"/>
<path d="" fill="#168BEF" transform="translate(0,0)"/>
<path d="" fill="#138BEF" transform="translate(0,0)"/>
<path d="" fill="#58BDF8" transform="translate(0,0)"/>
<path d="" fill="#0E87EE" transform="translate(0,0)"/>
<path d="" fill="#0F8AEE" transform="translate(0,0)"/>
<path d="" fill="#64C6F9" transform="translate(0,0)"/>
<path d="" fill="#5DBBF4" transform="translate(0,0)"/>
<path d="" fill="#138AEC" transform="translate(0,0)"/>
<path d="" fill="#1789EB" transform="translate(0,0)"/>
<path d="" fill="#1386EC" transform="translate(0,0)"/>
<path d="" fill="#5EBDF7" transform="translate(0,0)"/>
<path d="" fill="#1086EF" transform="translate(0,0)"/>
<path d="" fill="#0D87EE" transform="translate(0,0)"/>
<path d="" fill="#1086EC" transform="translate(0,0)"/>
<path d="" fill="#0F87EF" transform="translate(0,0)"/>
<path d="" fill="#0F86EC" transform="translate(0,0)"/>
<path d="" fill="#67BCE9" transform="translate(0,0)"/>
<path d="" fill="#5EC0F7" transform="translate(0,0)"/>
<path d="" fill="#1185EA" transform="translate(0,0)"/>
<path d="" fill="#1084E8" transform="translate(0,0)"/>
<path d="" fill="#5EBEF5" transform="translate(0,0)"/>
<path d="" fill="#5FC3F8" transform="translate(0,0)"/>
<path d="" fill="#63C0F8" transform="translate(0,0)"/>
<path d="" fill="#66CAFE" transform="translate(0,0)"/>
<path d="" fill="#63BFF2" transform="translate(0,0)"/>
<path d="" fill="#65C6FD" transform="translate(0,0)"/>
<path d="" fill="#67BDE8" transform="translate(0,0)"/>
<path d="" fill="#67C7F7" transform="translate(0,0)"/>
<path d="" fill="#62BEEF" transform="translate(0,0)"/>
<path d="" fill="#68BEE9" transform="translate(0,0)"/>
<path d="" fill="#68C8FA" transform="translate(0,0)"/>
<path d="" fill="#67C6F9" transform="translate(0,0)"/>
<path d="" fill="#69BBE8" transform="translate(0,0)"/>
<path d="" fill="#66BCEA" transform="translate(0,0)"/>
<path d="" fill="#60BCEF" transform="translate(0,0)"/>
<path d="" fill="#67B9E9" transform="translate(0,0)"/>
<path d="" fill="#65BDED" transform="translate(0,0)"/>
<path d="" fill="#67BBE7" transform="translate(0,0)"/>
<path d="" fill="#66BAEC" transform="translate(0,0)"/>
<path d="" fill="#64BCEB" transform="translate(0,0)"/>
<path d="" fill="#67BDE9" transform="translate(0,0)"/>
</svg>
